<svg width="30" height="30" viewBox="0 0 30 30" fill="none" xmlns="http://www.w3.org/2000/svg">
<g clip-path="url(#clip0_7_537)">
<path d="M20.625 7.5H9.375C7.65125 7.5 6.25 8.9025 6.25 10.625L6.25875 21.2575H23.7587L23.75 10.6237C23.75 8.90125 22.3475 7.5 20.625 7.5ZM20.625 8.75C21.0763 8.75 21.4912 8.91 21.815 9.17625L16.6875 14.3037C15.7913 15.2 14.23 15.2 13.3337 14.3037L8.1975 9.1675C8.52 8.90625 8.93 8.75 9.375 8.75H20.625ZM7.50875 20.0087L7.5 10.625C7.5 10.5037 7.5125 10.3863 7.53375 10.2713L12.45 15.1875C13.135 15.8712 14.0437 16.2487 15.0112 16.2487C15.9787 16.2487 16.8875 15.8725 17.5713 15.1875L22.47 10.2887C22.49 10.3975 22.5012 10.51 22.5012 10.6237L22.51 20.0075L7.50875 20.0087ZM15 0C6.72875 0 0 6.72875 0 15C0 23.2713 6.72875 30 15 30C23.2713 30 30 23.2713 30 15C30 6.72875 23.2713 0 15 0ZM15 28.75C7.41875 28.75 1.25 22.5813 1.25 15C1.25 7.41875 7.41875 1.25 15 1.25C22.5813 1.25 28.75 7.41875 28.75 15C28.75 22.5813 22.5813 28.75 15 28.75Z" fill="black"/>
</g>
<defs>
<clipPath id="clip0_7_537">
<rect width="30" height="30" fill="white"/>
</clipPath>
</defs>
</svg>
