<svg width="30" height="30" viewBox="0 0 30 30" fill="none" xmlns="http://www.w3.org/2000/svg">
<g clip-path="url(#clip0_7_534)">
<path d="M15 30C6.72875 30 0 23.2713 0 15C0 6.72875 6.72875 0 15 0C23.2713 0 30 6.72875 30 15C30 23.2713 23.2713 30 15 30ZM15 1.25C7.41875 1.25 1.25 7.41875 1.25 15C1.25 22.5813 7.41875 28.75 15 28.75C22.5813 28.75 28.75 22.5813 28.75 15C28.75 7.41875 22.5813 1.25 15 1.25ZM19.255 23.75C13.6638 23.75 6.25 16.335 6.25 10.7438C6.25 9.53875 6.70625 8.42 7.53375 7.5925L8.3775 6.85625C9.135 6.0925 10.5988 6.065 11.4188 6.885L12.8262 8.70875C13.1837 9.0575 13.41 9.6025 13.41 10.1838C13.41 10.765 13.1838 11.31 12.7725 11.72L11.8988 12.8237C12.995 15.3512 14.7237 17.085 17.1687 18.105L18.3063 17.1987C19.1538 16.38 20.5125 16.3862 21.3525 17.225L23.0538 18.525C23.9625 19.4262 23.9625 20.805 23.115 21.6512L22.4362 22.4325C21.58 23.2925 20.4612 23.7475 19.2562 23.7475L19.255 23.75ZM9.88125 7.5C9.63625 7.5 9.40375 7.59625 9.23 7.77L8.38625 8.50625C7.82625 9.0675 7.5 9.8725 7.5 10.7438C7.5 15.9325 14.7888 22.5 19.255 22.5C20.125 22.5 20.9312 22.1738 21.5212 21.5825L22.2 20.8013C22.59 20.4113 22.5888 19.825 22.2288 19.465L20.5275 18.165C20.1063 17.7512 19.52 17.7513 19.1613 18.1113L17.3812 19.5325L17.0475 19.405C14.02 18.2488 11.85 16.08 10.5975 12.9587L10.4625 12.6213L11.84 10.8888C12.0625 10.6613 12.1588 10.43 12.1588 10.1838C12.1588 9.9375 12.0625 9.70625 11.8875 9.5325L10.48 7.70875C10.3587 7.595 10.1275 7.5 9.88125 7.5Z" fill="black"/>
</g>
<defs>
<clipPath id="clip0_7_534">
<rect width="30" height="30" fill="white"/>
</clipPath>
</defs>
</svg>
